# Blender 4.5.1 LTS
# www.blender.org
mtllib slash_spin.mtl
o Sphere
v 5.517075 0.510628 -5.517075
v 6.220527 0.000000 -6.220527
v 5.097036 -0.510628 -5.097037
v 7.802322 0.510628 0.000000
v 8.797153 0.000000 0.000000
v 7.208298 -0.510628 0.000000
v 5.517074 0.510628 5.517075
v 6.220526 0.000000 6.220526
v 5.097036 -0.510628 5.097037
v -0.000000 0.510628 7.802322
v -0.000000 0.000000 8.797153
v -0.000000 -0.510628 7.208298
v -5.517075 0.510628 5.517075
v -6.220526 0.000000 6.220526
v -5.097037 -0.510628 5.097037
v -7.802322 0.510628 0.000000
v -8.797153 0.000000 0.000000
v -7.208298 -0.510628 0.000000
v -5.517075 0.510628 -5.517074
v -6.220526 0.000000 -6.220526
v -5.097037 -0.510628 -5.097036
v -0.000000 0.510628 -7.802322
v -0.000000 0.000000 -8.797153
v -0.000000 -0.510628 -7.208298
vn 0.1859 0.8742 -0.4487
vn 0.1257 -0.9445 -0.3035
vn 0.3035 -0.9445 -0.1257
vn 0.4487 0.8742 -0.1859
vn 0.4487 0.8742 0.1859
vn 0.3035 -0.9445 0.1257
vn 0.1859 0.8742 0.4487
vn 0.1257 -0.9445 0.3035
vn -0.1859 0.8742 0.4487
vn -0.1257 -0.9445 0.3035
vn -0.4487 0.8742 0.1859
vn -0.3035 -0.9445 0.1257
vn -0.4487 0.8742 -0.1859
vn -0.3035 -0.9445 -0.1257
vn -0.1859 0.8742 -0.4487
vn -0.1257 -0.9445 -0.3035
vn 0.8138 0.4734 -0.3371
vn 0.8138 0.4734 0.3371
vn 0.3371 0.4734 0.8138
vn -0.3371 0.4734 0.8138
vn -0.8138 0.4734 0.3371
vn -0.8138 0.4734 -0.3371
vn -0.3371 0.4734 -0.8138
vn 0.3371 0.4734 -0.8138
vt 0.750000 0.500000
vt 0.750000 0.750000
vt 0.625000 0.750000
vt 0.625000 0.500000
vt 0.750000 0.250000
vt 0.625000 0.250000
vt 0.500000 0.500000
vt 0.500000 0.250000
vt 0.500000 0.750000
vt 0.375000 0.750000
vt 0.375000 0.500000
vt 0.375000 0.250000
vt 0.250000 0.750000
vt 0.250000 0.500000
vt 0.250000 0.250000
vt 0.125000 0.750000
vt 0.125000 0.500000
vt 0.125000 0.250000
vt 0.000000 0.750000
vt 0.000000 0.500000
vt 0.000000 0.250000
vt 1.000000 0.500000
vt 1.000000 0.750000
vt 0.875000 0.750000
vt 0.875000 0.500000
vt 1.000000 0.250000
vt 0.875000 0.250000
s 0
f 23/1/1 22/2/1 1/3/1 2/4/1
f 24/5/2 23/1/2 2/4/2 3/6/2
f 3/6/3 2/4/3 5/7/3 6/8/3
f 2/4/4 1/3/4 4/9/4 5/7/4
f 5/7/5 4/9/5 7/10/5 8/11/5
f 6/8/6 5/7/6 8/11/6 9/12/6
f 8/11/7 7/10/7 10/13/7 11/14/7
f 9/12/8 8/11/8 11/14/8 12/15/8
f 11/14/9 10/13/9 13/16/9 14/17/9
f 12/15/10 11/14/10 14/17/10 15/18/10
f 14/17/11 13/16/11 16/19/11 17/20/11
f 15/18/12 14/17/12 17/20/12 18/21/12
f 17/22/13 16/23/13 19/24/13 20/25/13
f 18/26/14 17/22/14 20/25/14 21/27/14
f 20/25/15 19/24/15 22/2/15 23/1/15
f 21/27/16 20/25/16 23/1/16 24/5/16
f 18/21/17 16/23/17 13/16/17 15/18/17
f 21/27/18 19/24/18 16/23/18 18/21/18
f 22/2/19 19/24/19 21/27/19 24/5/19
f 3/6/20 1/3/20 22/2/20 24/5/20
f 3/6/21 6/8/21 4/9/21 1/3/21
f 4/9/22 6/8/22 9/12/22 7/10/22
f 12/15/23 10/13/23 7/10/23 9/12/23
f 15/18/24 13/16/24 10/13/24 12/15/24
